# xmcd
#
# Track frame offsets:
#	150
#	15900
#	32100
#	47750
#	58050
#	72150
#	83400
#	98775
#	114225
#	131175
#	148050
#	158275
#	169350
#	180075
#
# Disc length: 2575 seconds
#
# Revision: 0
# Processed by: cddbd v1.4PL0 Copyright (c) Steve Scherf et al.
# Submitted via: EasyCDDAExtractor 4.5.0.2
#
DISCID=a90a0d0e
DTITLE=Various Artist - No 1 Country Girls
DYEAR=1989
DGENRE=Country
TTITLE0=Think About Love
TTITLE1=It's Like We Never Said Goodbye
TTITLE2=Never Be You
TTITLE3=What A Man My Man Is
TTITLE4=Teddy Bear Song
TTITLE5=Drifter
TTITLE6=You And Me
TTITLE7=Have Mercy
TTITLE8=Hurt
TTITLE9=Always Have, Always Will
TTITLE10=Who's Cheating Who
TTITLE11=Would You Lay With Me (In A Field Of Stone)
TTITLE12=Once A Day
TTITLE13=You're The First Time I Thought About Leaving
EXTD=
EXTT0=Dolly Parton
EXTT1=Crystal Gayle
EXTT2=Rosanne Cash
EXTT3=Lynn Anderson
EXTT4=Barbara Fairchild
EXTT5=Sylvia
EXTT6=Tammy Wynette
EXTT7=Judds
EXTT8=Juice Newton
EXTT9=Janie Fricke
EXTT10=Charlie McLain
EXTT11=Tanya Tucker
EXTT12=Connie Smith
EXTT13=Reba McIntyre
PLAYORDER=
